<svg xmlns="http://www.w3.org/2000/svg" viewBox="0 0 1032 24" width="1032" height="24"><path d="M4 12h16zM4 7h16zM4 17h16zM28.003 11.993l15.994.014zM28.003 6.999l15.994.014zM28.003 17.001l15.994-.014zM52.012 11.971l15.976.058zM52.012 6.997l15.976.058zM52.012 17.003l15.976-.058zM76.029 11.93l15.942.14zM76.029 6.992l15.942.14zM76.029 17.008l15.942-.14zM100.054 11.869l15.892.262zM100.054 6.985l15.892.262zM100.054 17.015l15.892-.262zM124.09 11.783l15.82.434zM124.09 6.975l15.82.434zM124.09 17.025l15.82-.434zM148.138 11.668l15.724.664zM148.138 6.961l15.724.665zM148.138 17.039l15.724-.665zM172.199 11.519l15.602.962zM172.199 6.944l15.602.963zM172.199 17.056l15.602-.963zM196.278 11.33l15.444 1.34zM196.278 6.922l15.444 1.34zM196.278 17.078l15.444-1.34zM220.374 11.097l15.252 1.806zM220.374 6.895l15.252 1.806zM220.374 17.105l15.252-1.806zM244.49 10.818l15.02 2.364zM244.49 6.863l15.02 2.364zM244.49 17.137l15.02-2.364zM268.623 10.496l14.754 3.008zM268.623 6.825l14.754 3.009zM268.623 17.175l14.754-3.009zM292.769 10.142l14.462 3.716zM292.769 6.784l14.462 3.716zM292.769 17.216l14.462-3.716zM316.922 9.775l14.156 4.45zM316.922 6.742l14.156 4.45zM316.922 17.258l14.156-4.45zM341.071 9.413l13.858 5.174zM341.071 6.7l13.858 5.173zM341.071 17.3l13.858-5.173z" fill="none" stroke="#000000" stroke-width="2"/><g><path d="M365.213 9.072l13.574 5.856zM365.213 6.66l13.574 5.856zM365.213 17.34l13.574-5.856z" fill="none" stroke="#000000" stroke-width="2"/></g><g><path d="M389.343 8.758l13.314 6.484zM389.343 6.623l13.314 6.484zM389.343 17.377l13.314-6.484z" fill="none" stroke="#000000" stroke-width="2"/></g><g><path d="M413.46 8.475l13.08 7.05zM413.46 6.591l13.08 7.05zM413.46 17.409l13.08-7.05z" fill="none" stroke="#000000" stroke-width="2"/></g><g><path d="M437.565 8.221l12.87 7.558zM437.565 6.561l12.87 7.558zM437.565 17.439l12.87-7.558z" fill="none" stroke="#000000" stroke-width="2"/></g><g><path d="M461.659 7.994l12.682 8.012zM461.659 6.535l12.682 8.011zM461.659 17.465l12.682-8.011z" fill="none" stroke="#000000" stroke-width="2"/></g><g><path d="M485.743 7.793l12.514 8.414zM485.743 6.511l12.514 8.415zM485.743 17.489l12.514-8.415z" fill="none" stroke="#000000" stroke-width="2"/></g><g><path d="M509.817 7.613l12.366 8.774zM509.817 6.49l12.366 8.775zM509.817 17.51l12.366-8.775z" fill="none" stroke="#000000" stroke-width="2"/></g><g><path d="M533.884 7.452l12.232 9.096zM533.884 6.472l12.232 9.096zM533.884 17.528l12.232-9.096z" fill="none" stroke="#000000" stroke-width="2"/></g><g><path d="M557.943 7.309l12.114 9.382zM557.943 6.455l12.114 9.383zM557.943 17.545l12.114-9.383z" fill="none" stroke="#000000" stroke-width="2"/></g><g><path d="M581.996 7.181l12.008 9.638zM581.996 6.44l12.008 9.639zM581.996 17.56l12.008-9.639z" fill="none" stroke="#000000" stroke-width="2"/></g><g><path d="M606.044 7.066l11.912 9.868zM606.044 6.427l11.912 9.868zM606.044 17.573l11.912-9.868z" fill="none" stroke="#000000" stroke-width="2"/></g><g><path d="M630.086 6.964l11.828 10.072zM630.086 6.415l11.828 10.073zM630.086 17.585l11.828-10.073z" fill="none" stroke="#000000" stroke-width="2"/></g><g><path d="M654.124 6.872l11.752 10.256zM654.124 6.404l11.752 10.256zM654.124 17.596L665.876 7.34z" fill="none" stroke="#000000" stroke-width="2"/></g><g><path d="M678.157 6.791l11.686 10.418zM678.157 6.395l11.686 10.418zM678.157 17.605l11.686-10.418z" fill="none" stroke="#000000" stroke-width="2"/></g><g><path d="M702.187 6.719l11.626 10.562zM702.187 6.387l11.626 10.562zM702.187 17.613l11.626-10.562z" fill="none" stroke="#000000" stroke-width="2"/></g><g><path d="M726.214 6.655l11.572 10.69zM726.214 6.379l11.572 10.69zM726.214 17.621l11.572-10.69z" fill="none" stroke="#000000" stroke-width="2"/></g><g><path d="M750.237 6.598l11.526 10.804zM750.237 6.373l11.526 10.803zM750.237 17.627l11.526-10.803z" fill="none" stroke="#000000" stroke-width="2"/></g><g><path d="M774.258 6.549l11.484 10.902zM774.258 6.367l11.484 10.902zM774.258 17.633l11.484-10.902z" fill="none" stroke="#000000" stroke-width="2"/></g><g><path d="M798.276 6.506l11.448 10.988zM798.276 6.362l11.448 10.988zM798.276 17.638L809.724 6.65z" fill="none" stroke="#000000" stroke-width="2"/></g><g><path d="M822.291 6.469l11.418 11.062zM822.291 6.358l11.418 11.062zM822.291 17.642L833.709 6.58z" fill="none" stroke="#000000" stroke-width="2"/></g><g><path d="M846.304 6.437l11.392 11.126zM846.304 6.354l11.392 11.126zM846.304 17.646L857.696 6.52z" fill="none" stroke="#000000" stroke-width="2"/></g><g><path d="M870.315 6.411l11.37 11.178zM870.315 6.351l11.37 11.179zM870.315 17.649l11.37-11.179z" fill="none" stroke="#000000" stroke-width="2"/></g><g><path d="M894.324 6.389l11.352 11.222zM894.324 6.348l11.352 11.222zM894.324 17.652L905.676 6.43z" fill="none" stroke="#000000" stroke-width="2"/></g><g><path d="M918.331 6.372l11.338 11.256zM918.331 6.346l11.338 11.257zM918.331 17.654l11.338-11.257z" fill="none" stroke="#000000" stroke-width="2"/></g><g><path d="M942.336 6.359l11.328 11.282zM942.336 6.345l11.328 11.282zM942.336 17.655l11.328-11.282z" fill="none" stroke="#000000" stroke-width="2"/></g><g><path d="M966.34 6.35l11.32 11.3zM966.34 6.344l11.32 11.3zM966.34 17.656l11.32-11.3z" fill="none" stroke="#000000" stroke-width="2"/></g><g><path d="M990.342 6.345l11.316 11.31zM990.342 6.343l11.316 11.311zM990.342 17.657l11.316-11.311z" fill="none" stroke="#000000" stroke-width="2"/></g><g><path d="M1014.343 6.343l11.314 11.314zM1014.343 6.343l11.314 11.314zM1014.343 17.657l11.314-11.314z" fill="none" stroke="#000000" stroke-width="2"/></g></svg>