<svg xmlns="http://www.w3.org/2000/svg" viewBox="0 0 528 24" width="528" height="24"><path d="M4 12h16zM4 7h16zM4 17h16zM28.012 11.971l15.976.058zM28.012 6.997l15.976.058zM28.012 17.003l15.976-.058zM52.054 11.869l15.892.262zM52.054 6.985l15.892.262zM52.054 17.015l15.892-.262zM76.138 11.668l15.724.664zM76.138 6.961l15.724.665zM76.138 17.039l15.724-.665zM100.278 11.33l15.444 1.34zM100.278 6.922l15.444 1.34zM100.278 17.078l15.444-1.34zM124.49 10.818l15.02 2.364zM124.49 6.863l15.02 2.364zM124.49 17.137l15.02-2.364zM148.769 10.142l14.462 3.716zM148.769 6.784l14.462 3.716zM148.769 17.216l14.462-3.716zM173.071 9.413l13.858 5.174zM173.071 6.7l13.858 5.173zM173.071 17.3l13.858-5.173z" fill="none" stroke="#000000" stroke-width="2"/><g><path d="M197.343 8.758l13.314 6.484zM197.343 6.623l13.314 6.484zM197.343 17.377l13.314-6.484z" fill="none" stroke="#000000" stroke-width="2"/></g><g><path d="M221.565 8.221l12.87 7.558zM221.565 6.561l12.87 7.558zM221.565 17.439l12.87-7.558z" fill="none" stroke="#000000" stroke-width="2"/></g><g><path d="M245.743 7.793l12.514 8.414zM245.743 6.511l12.514 8.415zM245.743 17.489l12.514-8.415z" fill="none" stroke="#000000" stroke-width="2"/></g><g><path d="M269.884 7.452l12.232 9.096zM269.884 6.472l12.232 9.096zM269.884 17.528l12.232-9.096z" fill="none" stroke="#000000" stroke-width="2"/></g><g><path d="M293.996 7.181l12.008 9.638zM293.996 6.44l12.008 9.639zM293.996 17.56l12.008-9.639z" fill="none" stroke="#000000" stroke-width="2"/></g><g><path d="M318.086 6.964l11.828 10.072zM318.086 6.415l11.828 10.073zM318.086 17.585l11.828-10.073z" fill="none" stroke="#000000" stroke-width="2"/></g><g><path d="M342.157 6.791l11.686 10.418zM342.157 6.395l11.686 10.418zM342.157 17.605l11.686-10.418z" fill="none" stroke="#000000" stroke-width="2"/></g><g><path d="M366.214 6.655l11.572 10.69zM366.214 6.379l11.572 10.69zM366.214 17.621l11.572-10.69z" fill="none" stroke="#000000" stroke-width="2"/></g><g><path d="M390.258 6.549l11.484 10.902zM390.258 6.367l11.484 10.902zM390.258 17.633l11.484-10.902z" fill="none" stroke="#000000" stroke-width="2"/></g><g><path d="M414.291 6.469l11.418 11.062zM414.291 6.358l11.418 11.062zM414.291 17.642L425.709 6.58z" fill="none" stroke="#000000" stroke-width="2"/></g><g><path d="M438.315 6.411l11.37 11.178zM438.315 6.351l11.37 11.179zM438.315 17.649l11.37-11.179z" fill="none" stroke="#000000" stroke-width="2"/></g><g><path d="M462.331 6.372l11.338 11.256zM462.331 6.346l11.338 11.257zM462.331 17.654l11.338-11.257z" fill="none" stroke="#000000" stroke-width="2"/></g><g><path d="M486.34 6.35l11.32 11.3zM486.34 6.344l11.32 11.3zM486.34 17.656l11.32-11.3z" fill="none" stroke="#000000" stroke-width="2"/></g><g><path d="M510.343 6.343l11.314 11.314zM510.343 6.343l11.314 11.314zM510.343 17.657l11.314-11.314z" fill="none" stroke="#000000" stroke-width="2"/></g></svg>