<?xml version="1.0" encoding="UTF-8" standalone="no"?>
<svg
   xmlns:dc="http://purl.org/dc/elements/1.1/"
   xmlns:cc="http://creativecommons.org/ns#"
   xmlns:rdf="http://www.w3.org/1999/02/22-rdf-syntax-ns#"
   xmlns:svg="http://www.w3.org/2000/svg"
   xmlns="http://www.w3.org/2000/svg"
   xmlns:xlink="http://www.w3.org/1999/xlink"
   xmlns:sodipodi="http://sodipodi.sourceforge.net/DTD/sodipodi-0.dtd"
   xmlns:inkscape="http://www.inkscape.org/namespaces/inkscape"
   width="100%"
   height="100%"
   viewBox="0 0 48 48"
   fit=""
   preserveAspectRatio="xMidYMid meet"
   focusable="false"
   version="1.1"
   id="svg20"
   sodipodi:docname="ShapeShifterLogo.svg"
   inkscape:version="0.92.5 (2060ec1f9f, 2020-04-08)">
  <metadata
     id="metadata24">
    <rdf:RDF>
      <cc:Work
         rdf:about="">
        <dc:format>image/svg+xml</dc:format>
        <dc:type
           rdf:resource="http://purl.org/dc/dcmitype/StillImage" />
      </cc:Work>
    </rdf:RDF>
  </metadata>
  <sodipodi:namedview
     pagecolor="#ffffff"
     bordercolor="#666666"
     borderopacity="1"
     objecttolerance="10"
     gridtolerance="10"
     guidetolerance="10"
     inkscape:pageopacity="0"
     inkscape:pageshadow="2"
     inkscape:window-width="1920"
     inkscape:window-height="1001"
     id="namedview22"
     showgrid="false"
     inkscape:zoom="9.8333333"
     inkscape:cx="27.528069"
     inkscape:cy="26.549901"
     inkscape:window-x="-9"
     inkscape:window-y="-9"
     inkscape:window-maximized="1"
     inkscape:current-layer="svg20" />
  <defs
     id="defs3">
    <circle
       id="shapeshifterId1"
       cx="24"
       cy="24"
       r="22" />
    <mask
       fill="#fff"
       id="shapeshifterId2">
      <use
         id="use5"
         xlink:href="#shapeshifterId1" />
    </mask>
  </defs>
  <path
     style="fill:#2962ff;fill-opacity:1;stroke-width:1.2593261"
     d="M 45.992188 24 L 2.0703125 24 A 21.963499 21.963499 0 0 0 2.0683594 24.037109 A 21.963499 21.963499 0 0 0 24.03125 46 A 21.963499 21.963499 0 0 0 45.994141 24.037109 A 21.963499 21.963499 0 0 0 45.992188 24 z "
     id="path942" />
  <path
     style="fill:#214ecc;fill-opacity:1;stroke-width:1.2593261"
     d="M 24.03125 2.0722656 A 21.963499 21.963499 0 0 0 2.0703125 24 L 45.992188 24 A 21.963499 21.963499 0 0 0 24.03125 2.0722656 z "
     id="path28" />
  <g
     style="fill:none;fill-rule:evenodd"
     id="g16"
     mask="url('/#shapeshifterId2')">
    <path
       inkscape:connector-curvature="0"
       id="path12"
       d="M 8,8 H 40 V 40 H 8 Z" />
    <path
       style="fill:#ffffff"
       inkscape:connector-curvature="0"
       id="path14"
       d="M 34.667,18.31 V 24 c 0,0.736 -0.6,1.333 -1.344,1.333 h -7.99 v 4.357 c 0.797,0.46 1.334,1.323 1.334,2.31 0,1.473 -1.194,2.667 -2.667,2.667 -1.473,0 -2.667,-1.194 -2.667,-2.667 0,-0.987 0.537,-1.85 1.334,-2.31 V 25.333 H 16 v 4.357 c 0.797,0.46 1.333,1.323 1.333,2.31 0,1.473 -1.194,2.667 -2.666,2.667 C 13.194,34.667 12,33.473 12,32 c 0,-0.987 0.536,-1.85 1.333,-2.31 V 18.31 C 12.536,17.85 12,16.987 12,16 c 0,-1.473 1.194,-2.667 2.667,-2.667 1.472,0 2.666,1.194 2.666,2.667 0,0.987 -0.536,1.85 -1.333,2.31 v 4.357 h 6.667 V 18.31 C 21.87,17.85 21.333,16.987 21.333,16 c 0,-1.473 1.194,-2.667 2.667,-2.667 1.473,0 2.667,1.194 2.667,2.667 0,0.987 -0.537,1.85 -1.334,2.31 v 4.357 H 32 V 18.31 C 31.203,17.85 30.667,16.987 30.667,16 c 0,-1.473 1.194,-2.667 2.666,-2.667 1.473,0 2.667,1.194 2.667,2.667 0,0.987 -0.536,1.85 -1.333,2.31 z" />
  </g>
</svg>
