<svg xmlns="http://www.w3.org/2000/svg" viewBox="0 0 528 24" width="528" height="24">
<style>
    g {
      stroke: white;
    }
  </style>
<g fill="none" stroke="#000000" stroke-width="2"><path d="M4 17h16zM4 7h16zM4 12h16z"/></g><g fill="none" stroke="#000000" stroke-width="2"><path d="M28.014 17.004l15.972-.069zM28.014 6.996l15.972.069zM28.014 11.966l15.972.068z"/></g><g fill="none" stroke="#000000" stroke-width="2"><path d="M52.064 17.018l15.872-.31zM52.064 6.982l15.872.31zM52.064 11.845l15.872.31z"/></g><g fill="none" stroke="#000000" stroke-width="2"><path d="M76.164 17.046l15.672-.793zM76.164 6.954l15.672.793zM76.164 11.603l15.672.794z"/></g><g fill="none" stroke="#000000" stroke-width="2"><path d="M100.335 17.094l15.33-1.616zM100.335 6.906l15.33 1.616zM100.335 11.192l15.33 1.616z"/></g><g fill="none" stroke="#000000" stroke-width="2"><path d="M124.591 17.166l14.818-2.853zM124.591 6.834l14.818 2.853zM124.591 10.573l14.818 2.854z"/></g><g fill="none" stroke="#000000" stroke-width="2"><path d="M148.91 17.255l14.18-4.393zM148.91 6.745l14.18 4.393zM148.91 9.803l14.18 4.394z"/></g><g fill="none" stroke="#000000" stroke-width="2"><path d="M173.223 17.343l13.554-5.907zM173.223 6.657l13.554 5.907zM173.223 9.047l13.554 5.906z"/></g><g fill="none" stroke="#000000" stroke-width="2"><path d="M197.485 17.417l13.03-7.173zM197.485 6.583l13.03 7.173zM197.485 8.414l13.03 7.172z"/></g><g fill="none" stroke="#000000" stroke-width="2"><path d="M221.692 17.475l12.616-8.172zM221.692 6.525l12.616 8.172zM221.692 7.914l12.616 8.172z"/></g><g fill="none" stroke="#000000" stroke-width="2"><path d="M245.854 17.52l12.292-8.952zM245.854 6.48l12.292 8.952zM245.854 7.524l12.292 8.952z"/></g><g fill="none" stroke="#000000" stroke-width="2"><path d="M269.98 17.555l12.04-9.563zM269.98 6.445l12.04 9.563zM269.98 7.218l12.04 9.564z"/></g><g fill="none" stroke="#000000" stroke-width="2"><path d="M294.08 17.583l11.84-10.042zM294.08 6.417l11.84 10.042zM294.08 6.979l11.84 10.042z"/></g><g fill="none" stroke="#000000" stroke-width="2"><path d="M318.157 17.605l11.686-10.418zM318.157 6.395l11.686 10.418zM318.157 6.791l11.686 10.418z"/></g><g fill="none" stroke="#000000" stroke-width="2"><path d="M342.218 17.622l11.564-10.709zM342.218 6.378l11.564 10.709zM342.218 6.646l11.564 10.708z"/></g><g fill="none" stroke="#000000" stroke-width="2"><path d="M366.263 17.635l11.474-10.93zM366.263 6.365l11.474 10.93zM366.263 6.535l11.474 10.93z"/></g><g fill="none" stroke="#000000" stroke-width="2"><path d="M390.297 17.644l11.406-11.093zM390.297 6.356l11.406 11.093zM390.297 6.453l11.406 11.094z"/></g><g fill="none" stroke="#000000" stroke-width="2"><path d="M414.321 17.651l11.358-11.207zM414.321 6.349l11.358 11.207zM414.321 6.397l11.358 11.206z"/></g><g fill="none" stroke="#000000" stroke-width="2"><path d="M438.335 17.655l11.33-11.277zM438.335 6.345l11.33 11.277zM438.335 6.362l11.33 11.276z"/></g><g fill="none" stroke="#000000" stroke-width="2"><path d="M462.342 17.657l11.316-11.31zM462.342 6.343l11.316 11.31zM462.342 6.345l11.316 11.31z"/></g><g fill="none" stroke="#000000" stroke-width="2"><path d="M486.343 17.657l11.314-11.314zM486.343 6.343l11.314 11.314zM486.343 6.343l11.314 11.314z"/></g><g fill="none" stroke="#000000" stroke-width="2"><path d="M510.343 17.657l11.314-11.314zM510.343 6.343l11.314 11.314zM510.343 6.343l11.314 11.314z"/></g></svg>