<svg xmlns="http://www.w3.org/2000/svg" viewBox="0 0 528 24" width="528" height="24"><path d="M4 12h16zM4 7h16zM4 17h16zM28.013 11.97l15.974.06zM28.013 6.996l15.974.061zM28.013 17.004l15.974-.061zM52.056 11.865l15.888.27zM52.056 6.984l15.888.27zM52.056 17.016l15.888-.27zM76.142 11.657l15.716.686zM76.142 6.96l15.716.685zM76.142 17.04l15.716-.685zM100.287 11.308l15.426 1.384zM100.287 6.92l15.426 1.384zM100.287 17.08l15.426-1.384zM124.506 10.778l14.988 2.444zM124.506 6.858l14.988 2.444zM124.506 17.142l14.988-2.444zM148.793 10.085l14.414 3.83zM148.793 6.778l14.414 3.829zM148.793 17.222l14.414-3.829zM173.098 9.349l13.804 5.302zM173.098 6.692l13.804 5.302zM173.098 17.308l13.804-5.302z" fill="none" stroke="#000000" stroke-width="2"/><g><path d="M197.368 8.696l13.264 6.608zM197.368 6.616l13.264 6.607zM197.368 17.384l13.264-6.607z" fill="none" stroke="#000000" stroke-width="2"/></g><g><path d="M221.588 8.165l12.824 7.67zM221.588 6.555l12.824 7.669zM221.588 17.445l12.824-7.669z" fill="none" stroke="#000000" stroke-width="2"/></g><g><path d="M245.763 7.744l12.474 8.512zM245.763 6.506l12.474 8.512zM245.763 17.494l12.474-8.512z" fill="none" stroke="#000000" stroke-width="2"/></g><g><path d="M269.901 7.409l12.198 9.182zM269.901 6.467l12.198 9.181zM269.901 17.533l12.198-9.181z" fill="none" stroke="#000000" stroke-width="2"/></g><g><path d="M294.012 7.143l11.976 9.714zM294.012 6.436l11.976 9.713zM294.012 17.564l11.976-9.713z" fill="none" stroke="#000000" stroke-width="2"/></g><g><path d="M318.099 6.932l11.802 10.136zM318.099 6.411l11.802 10.137zM318.099 17.589l11.802-10.137z" fill="none" stroke="#000000" stroke-width="2"/></g><g><path d="M342.169 6.764l11.662 10.472zM342.169 6.392l11.662 10.472zM342.169 17.608l11.662-10.472z" fill="none" stroke="#000000" stroke-width="2"/></g><g><path d="M366.223 6.632l11.554 10.736zM366.223 6.377l11.554 10.736zM366.223 17.623l11.554-10.736z" fill="none" stroke="#000000" stroke-width="2"/></g><g><path d="M390.265 6.53l11.47 10.94zM390.265 6.365l11.47 10.939zM390.265 17.635l11.47-10.939z" fill="none" stroke="#000000" stroke-width="2"/></g><g><path d="M414.297 6.454l11.406 11.092zM414.297 6.356l11.406 11.092zM414.297 17.644l11.406-11.092z" fill="none" stroke="#000000" stroke-width="2"/></g><g><path d="M438.319 6.4l11.362 11.2zM438.319 6.35l11.362 11.2zM438.319 17.65l11.362-11.2z" fill="none" stroke="#000000" stroke-width="2"/></g><g><path d="M462.334 6.365l11.332 11.27zM462.334 6.346l11.332 11.27zM462.334 17.654l11.332-11.27z" fill="none" stroke="#000000" stroke-width="2"/></g><g><path d="M486.341 6.347l11.318 11.306zM486.341 6.343l11.318 11.307zM486.341 17.657L497.659 6.35z" fill="none" stroke="#000000" stroke-width="2"/></g><g><path d="M510.343 6.343l11.314 11.314zM510.343 6.343l11.314 11.314zM510.343 17.657l11.314-11.314z" fill="none" stroke="#000000" stroke-width="2"/></g></svg>